HIERARCHY
ROOT hip
{
  OFFSET 1.46175 84.2494 4.6417
  CHANNELS 6 Xposition Yposition Zposition Zrotation Xrotation Yrotation
  JOINT abdomen
  {
    OFFSET 0 20.6881 -0.73152
    CHANNELS 3 Zrotation Xrotation Yrotation
    JOINT chest
    {
      OFFSET 0 11.7043 -0.48768
      CHANNELS 3 Zrotation Xrotation Yrotation
      JOINT neck
      {
        OFFSET 0 22.1894 -2.19456
        CHANNELS 3 Zrotation Xrotation Yrotation
        JOINT head
        {
          OFFSET -0.24384 7.07133 1.2192
          CHANNELS 3 Zrotation Xrotation Yrotation
          JOINT leftEye
          {
            OFFSET 4.14528 8.04674 8.04672
            CHANNELS 3 Zrotation Xrotation Yrotation
            End Site
            {
              OFFSET 1 0 0
            }
          }
          JOINT rightEye
          {
            OFFSET -3.6576 8.04674 8.04672
            CHANNELS 3 Zrotation Xrotation Yrotation
            End Site
            {
              OFFSET 1 0 0
            }
          }
        }
      }
      JOINT rCollar
      {
        OFFSET -2.68224 19.2634 -4.8768
        CHANNELS 3 Zrotation Xrotation Yrotation
        JOINT rShldr
        {
          OFFSET -8.77824 -1.95073 1.46304
          CHANNELS 3 Zrotation Xrotation Yrotation
          JOINT rForeArm
          {
            OFFSET -28.1742 -1.7115 0.48768
            CHANNELS 3 Zrotation Xrotation Yrotation
            JOINT rHand
            {
              OFFSET -22.5879 0.773209 7.07136
              CHANNELS 3 Zrotation Xrotation Yrotation
              JOINT rThumb1
              {
                OFFSET -1.2192 -0.487915 3.41376
                CHANNELS 3 Zrotation Xrotation Yrotation
                JOINT rThumb2
                {
                  OFFSET -3.37035 -0.52449 3.41376
                  CHANNELS 3 Zrotation Xrotation Yrotation
                  End Site
                  {
                    OFFSET -1.78271 -1.18214 1.43049
                  }
                }
              }
              JOINT rIndex1
              {
                OFFSET -7.75947 0.938293 5.60832
                CHANNELS 3 Zrotation Xrotation Yrotation
                JOINT rIndex2
                {
                  OFFSET -2.54057 -0.884171 1.56538
                  CHANNELS 3 Zrotation Xrotation Yrotation
                  End Site
                  {
                    OFFSET -1.62519 -0.234802 1.16502
                  }
                }
              }
              JOINT rMid1
              {
                OFFSET -8.24714 1.18213 3.41376
                CHANNELS 3 Zrotation Xrotation Yrotation
                JOINT rMid2
                {
                  OFFSET -3.10165 -0.590103 1.0647
                  CHANNELS 3 Zrotation Xrotation Yrotation
                  End Site
                  {
                    OFFSET -2.48547 -0.328903 0.83742
                  }
                }
              }
              JOINT rRing1
              {
                OFFSET -8.82822 0.546677 1.51678
                CHANNELS 3 Zrotation Xrotation Yrotation
                JOINT rRing2
                {
                  OFFSET -2.60934 -0.819778 -0.0198488
                  CHANNELS 3 Zrotation Xrotation Yrotation
                  End Site
                  {
                    OFFSET -2.33842 -0.294052 0.168128
                  }
                }
              }
              JOINT rPinky1
              {
                OFFSET -8.27202 -0.0477905 -0.4584
                CHANNELS 3 Zrotation Xrotation Yrotation
                JOINT rPinky2
                {
                  OFFSET -1.82734 -0.647385 -0.700984
                  CHANNELS 3 Zrotation Xrotation Yrotation
                  End Site
                  {
                    OFFSET -1.69225 -0.51767 -0.607171
                  }
                }
              }
            }
          }
        }
      }
      JOINT lCollar
      {
        OFFSET 2.68224 19.2634 -4.8768
        CHANNELS 3 Zrotation Xrotation Yrotation
        JOINT lShldr
        {
          OFFSET 8.77824 -1.95073 1.46304
          CHANNELS 3 Zrotation Xrotation Yrotation
          JOINT lForeArm
          {
            OFFSET 28.1742 -1.7115 0.48768
            CHANNELS 3 Zrotation Xrotation Yrotation
            JOINT lHand
            {
              OFFSET 22.5879 0.773209 7.07136
              CHANNELS 3 Zrotation Xrotation Yrotation
              JOINT lThumb1
              {
                OFFSET 1.2192 -0.487915 3.41376
                CHANNELS 3 Zrotation Xrotation Yrotation
                JOINT lThumb2
                {
                  OFFSET 3.37035 -0.52449 3.41376
                  CHANNELS 3 Zrotation Xrotation Yrotation
                  End Site
                  {
                    OFFSET 1.78271 -1.18214 1.43049
                  }
                }
              }
              JOINT lIndex1
              {
                OFFSET 7.75947 0.938293 5.60832
                CHANNELS 3 Zrotation Xrotation Yrotation
                JOINT lIndex2
                {
                  OFFSET 2.54057 -0.884171 1.56538
                  CHANNELS 3 Zrotation Xrotation Yrotation
                  End Site
                  {
                    OFFSET 1.62519 -0.234802 1.16502
                  }
                }
              }
              JOINT lMid1
              {
                OFFSET 8.24714 1.18213 3.41376
                CHANNELS 3 Zrotation Xrotation Yrotation
                JOINT lMid2
                {
                  OFFSET 3.10165 -0.590103 1.0647
                  CHANNELS 3 Zrotation Xrotation Yrotation
                  End Site
                  {
                    OFFSET 2.48547 -0.328903 0.83742
                  }
                }
              }
              JOINT lRing1
              {
                OFFSET 8.82822 0.546677 1.51678
                CHANNELS 3 Zrotation Xrotation Yrotation
                JOINT lRing2
                {
                  OFFSET 2.60934 -0.819778 -0.0198488
                  CHANNELS 3 Zrotation Xrotation Yrotation
                  End Site
                  {
                    OFFSET 2.33842 -0.294052 0.168128
                  }
                }
              }
              JOINT lPinky1
              {
                OFFSET 8.27202 -0.0477905 -0.4584
                CHANNELS 3 Zrotation Xrotation Yrotation
                JOINT lPinky2
                {
                  OFFSET 1.82734 -0.647385 -0.700984
                  CHANNELS 3 Zrotation Xrotation Yrotation
                  End Site
                  {
                    OFFSET 1.69225 -0.51767 -0.607171
                  }
                }
              }
            }
          }
        }
      }
    }
  }
  JOINT rButtock
  {
    OFFSET -8.77824 4.35084 1.2192
    CHANNELS 3 Zrotation Xrotation Yrotation
    JOINT rThigh
    {
      OFFSET 0 -1.70687 -2.19456
      CHANNELS 3 Zrotation Xrotation Yrotation
      JOINT rShin
      {
        OFFSET 0 -36.8199 0.73152
        CHANNELS 3 Zrotation Xrotation Yrotation
        JOINT rFoot
        {
          OFFSET 0.73152 -45.1104 -5.12064
          CHANNELS 3 Zrotation Xrotation Yrotation
          End Site
          {
            OFFSET -1.1221 -3.69964 12.103
          }
        }
      }
    }
  }
  JOINT lButtock
  {
    OFFSET 8.77824 4.35084 1.2192
    CHANNELS 3 Zrotation Xrotation Yrotation
    JOINT lThigh
    {
      OFFSET 0 -1.70687 -2.19456
      CHANNELS 3 Zrotation Xrotation Yrotation
      JOINT lShin
      {
        OFFSET 0 -36.8199 0.73152
        CHANNELS 3 Zrotation Xrotation Yrotation
        JOINT lFoot
        {
          OFFSET -0.73152 -45.1104 -5.12064
          CHANNELS 3 Zrotation Xrotation Yrotation
          End Site
          {
            OFFSET 1.1221 -3.69964 12.103
          }
        }
      }
    }
  }
}
MOTION
Frames:	8
Frame Time:	0.00833333
-0.423402 84.9792 5.0271 0.0281105 -0.000164666 -0.000475575 -0.0369904 -0.000394254 -0.00106259 -0.0102115 -0.000642365 -0.00176897 -8.00859e-016 7.95139e-016 2.71776e-018 -2.39473e-015 9.54166e-015 3.10601e-018 -0 0 0 -0 0 0 -2.99527e-016 -2.32951e-018 1.49089e-016 -6.7911e-015 9.31803e-017 7.95139e-016 -1.4556e-013 3.79679e-014 -9.54166e-015 -1.64189e-012 -6.39838e-014 9.54166e-015 -3.88067e-012 -6.05958e-014 1.59028e-014 -6.71415e-012 -1.04958e-013 1.19271e-014 -3.87749e-012 -5.96354e-014 -3.18055e-015 7.73091 5.47488 0.417314 -3.88152e-012 -6.10269e-014 1.27222e-014 2.90554 0.965183 0.102902 -3.87429e-012 -6.07287e-014 1.03368e-014 10.2786 0.731801 0.0259123 -3.88743e-012 -5.52621e-014 9.54166e-015 2.22167 -0.733487 -0.20892 -4.95639e-016 -2.32951e-018 -1.49089e-016 -9.91002e-015 1.92573e-016 -7.95139e-016 -1.4238e-013 -4.35338e-014 1.59028e-014 -1.64738e-012 4.17448e-014 -3.18055e-015 -3.87982e-012 -8.93359e-015 9.54166e-015 -6.68553e-012 -1.59028e-014 2.38542e-014 -3.88306e-012 -6.36111e-015 2.54444e-014 -7.73091 5.47488 -0.417314 -3.87879e-012 -9.64106e-015 6.36111e-015 -2.90554 0.965183 -0.102902 -3.88742e-012 -9.0447e-015 1.03368e-014 -10.2786 0.731801 -0.0259123 -3.87372e-012 -5.96354e-015 0 -2.22167 -0.733487 0.20892 -2.03217e-016 0 -3.88251e-019 0.452246 -3.0226 -0.0389965 -0.00587874 -0.0777567 -0.0517926 -0.480045 3.09965 0.117404 2.03217e-016 0 3.88251e-019 -0.508688 -3.174 0.0425365 0.0054338 0.196475 0.0478055 0.480639 2.97682 -0.115 
0.0576734 84.1037 4.16887 1.08552 1.11767 -1.06293 -0.757243 -0.18696 1.52582 -0.074127 -0.41306 0.42034 -1.70117 5.10222 -0.866956 1.73982 -6.86683 -1.43529 -0 0 0 -0 0 0 6.42695e-015 1.04565e-014 5.12631e-014 14.0664 24.0502 -3.39763 -19.3424 -17.0344 15.157 0.0998583 -7.01945 -0.959986 7.41955e-011 3.46187e-010 -1.93033e-010 1.31699e-010 5.94976e-010 -3.31843e-010 7.41983e-011 3.46186e-010 -1.9305e-010 7.73091 5.47488 0.417314 7.41948e-011 3.46185e-010 -1.93036e-010 2.90554 0.965183 0.102902 7.41998e-011 3.46185e-010 -1.93037e-010 10.2786 0.731801 0.0259123 7.41871e-011 3.46191e-010 -1.93036e-010 2.22167 -0.733487 -0.20892 6.24754e-015 1.04557e-014 5.10081e-014 -12.4453 24.598 2.86601 22.2404 -20.1036 -15.0019 -0.000787361 -0.622505 0.0874686 3.00024e-010 -1.19986e-009 -5.1289e-010 5.1965e-010 -2.07444e-009 -8.8711e-010 3.00021e-010 -1.19985e-009 -5.12879e-010 -7.73091 5.47488 -0.417314 3.00025e-010 -1.19986e-009 -5.12893e-010 -2.90554 0.965183 -0.102902 3.00016e-010 -1.19986e-009 -5.1289e-010 -10.2786 0.731801 -0.0259123 3.00029e-010 -1.19985e-009 -5.129e-010 -2.22167 -0.733487 0.20892 -2.03217e-016 0 -3.88251e-019 -1.00186 -4.38454 2.29196 0.00130058 4.68125 0.0555883 -0.838225 -0.909576 -4.11109 2.03217e-016 0 3.88251e-019 -1.14976 -2.63041 -1.10771 9.7935e-005 2.17099 -0.00487204 0.690146 -0.792779 4.10657 
0.0492284 84.1038 4.16747 2.24967 2.29715 -2.1867 -1.50939 -0.384039 3.14009 -0.135136 -0.848133 0.866647 -3.33035 10.4918 -1.80594 3.19719 -14.1112 -3.02116 -0 0 0 -0 0 0 1.46609e-014 2.2984e-014 1.10959e-013 33.5126 49.1384 -9.78027 -29.127 -30.8601 35.3532 -0.0578885 -14.4334 -2.02393 1.6066e-010 7.58857e-010 -4.26604e-010 2.85373e-010 1.30433e-009 -7.33536e-010 1.60662e-010 7.58854e-010 -4.26618e-010 7.73091 5.47488 0.417314 1.60659e-010 7.58853e-010 -4.26607e-010 2.90554 0.965183 0.102902 1.60662e-010 7.58854e-010 -4.26607e-010 10.2786 0.731801 0.0259123 1.6065e-010 7.5886e-010 -4.26603e-010 2.22167 -0.733487 -0.20892 1.44993e-014 2.29822e-014 1.10751e-013 -29.6467 50.3532 8.41826 32.521 -36.3982 -36.9551 0.00044673 -1.27938 0.179801 6.44511e-010 -2.5664e-009 -1.0923e-009 1.11623e-009 -4.43702e-009 -1.88926e-009 6.44507e-010 -2.5664e-009 -1.09229e-009 -7.73091 5.47488 -0.417314 6.44511e-010 -2.5664e-009 -1.0923e-009 -2.90554 0.965183 -0.102902 6.44503e-010 -2.5664e-009 -1.0923e-009 -10.2786 0.731801 -0.0259123 6.44515e-010 -2.5664e-009 -1.09231e-009 -2.22167 -0.733487 0.20892 -2.03217e-016 0 -3.88251e-019 -2.41948 -5.81006 4.76646 -0.010708 9.71228 0.171199 -1.86006 -5.09513 -8.61543 2.03217e-016 0 3.88251e-019 -1.80507 -2.05175 -2.32344 -0.00148125 4.25468 -0.0606425 1.5145 -4.72607 8.59868 
0.0509962 84.1044 4.16388 3.32481 3.34873 -3.19269 -2.16795 -0.5585 4.57978 -0.183726 -1.23763 1.26482 -4.62599 15.2924 -2.68572 4.12884 -20.547 -4.56599 -0 0 0 -0 0 0 1.98799e-014 3.13742e-014 1.53491e-013 64.864 70.0393 -28.278 -29.4367 -35.3584 57.4558 -0.448587 -21.0338 -3.06261 2.30348e-010 1.03868e-009 -5.79131e-010 4.08526e-010 1.78514e-009 -9.95552e-010 2.3035e-010 1.03868e-009 -5.79143e-010 7.73091 5.47488 0.417314 2.30348e-010 1.03868e-009 -5.79134e-010 2.90554 0.965183 0.102902 2.30348e-010 1.03868e-009 -5.79132e-010 10.2786 0.731801 0.0259123 2.30336e-010 1.03868e-009 -5.79127e-010 2.22167 -0.733487 -0.20892 1.97339e-014 3.13717e-014 1.53322e-013 -58.9501 72.1258 26.3046 30.5644 -40.966 -62.8318 0.00334243 -1.8675 0.26253 9.07831e-010 -3.59955e-009 -1.53869e-009 1.57232e-009 -6.22328e-009 -2.66138e-009 9.07828e-010 -3.59955e-009 -1.53869e-009 -7.73091 5.47488 -0.417314 9.07831e-010 -3.59955e-009 -1.53869e-009 -2.90554 0.965183 -0.102902 9.07823e-010 -3.59955e-009 -1.53869e-009 -10.2786 0.731801 -0.0259123 9.07834e-010 -3.59955e-009 -1.5387e-009 -2.22167 -0.733487 0.20892 -2.03217e-016 0 -3.88251e-019 -3.57636 -7.06658 6.98696 -0.0391356 14.1991 0.278296 -3.33029 -8.71936 -12.7156 2.03217e-016 0 3.88251e-019 -2.36642 -1.54198 -3.40582 0.000362268 6.12 -0.110848 2.77418 -8.13758 12.678 
0.0528658 84.1024 4.15996 4.08982 4.08492 -3.8996 -2.61366 -0.677939 5.58283 -0.214074 -1.51342 1.54241 -5.42919 18.6336 -3.33701 4.53379 -25.0116 -5.76232 -0 0 0 -0 0 0 1.75616e-014 2.94209e-014 1.53114e-013 126.739 78.4882 -80.5528 -28.3033 -32.9195 71.9359 -0.879293 -25.6238 -3.86511 2.58096e-010 9.86389e-010 -5.29047e-010 4.55377e-010 1.69459e-009 -9.08374e-010 2.58098e-010 9.86382e-010 -5.29057e-010 7.73091 5.47488 0.417314 2.58096e-010 9.86383e-010 -5.2905e-010 2.90554 0.965183 0.102902 2.58095e-010 9.86383e-010 -5.29048e-010 10.2786 0.731801 0.0259123 2.58083e-010 9.86389e-010 -5.29041e-010 2.22167 -0.733487 -0.20892 1.74256e-014 2.94182e-014 1.52965e-013 -131.485 80.4669 90.3299 28.391 -37.1862 -79.0124 0.00640077 -2.28374 0.321131 9.68234e-010 -3.7992e-009 -1.65254e-009 1.67721e-009 -6.56875e-009 -2.85844e-009 9.68231e-010 -3.7992e-009 -1.65254e-009 -7.73091 5.47488 -0.417314 9.68234e-010 -3.7992e-009 -1.65254e-009 -2.90554 0.965183 -0.102902 9.68227e-010 -3.7992e-009 -1.65254e-009 -10.2786 0.731801 -0.0259123 9.68237e-010 -3.7992e-009 -1.65255e-009 -2.22167 -0.733487 0.20892 -2.03217e-016 0 -3.88251e-019 -4.31634 -7.93671 8.5454 -0.0694679 17.3256 0.356275 -4.66699 -11.1524 -15.6402 2.03217e-016 0 3.88251e-019 -2.73979 -1.20466 -4.15623 0.00308793 7.43941 -0.146524 3.94872 -10.4422 15.5815 
0.0450456 84.0989 4.15331 4.37732 4.38377 -4.18534 -2.76482 -0.720246 5.97424 -0.224528 -1.63262 1.65077 -5.70581 19.9428 -3.61056 4.59685 -26.7569 -6.28421 -0 0 0 -0 0 0 3.23592e-017 8.78426e-015 8.01584e-014 159.12 77.1165 -109.022 -28.2221 -30.85 76.7038 -1.08778 -27.4194 -4.20265 2.21135e-010 3.60131e-010 -1.25367e-010 3.83679e-010 6.16471e-010 -2.11589e-010 2.21137e-010 3.60122e-010 -1.25375e-010 7.73091 5.47488 0.417314 2.21135e-010 3.60127e-010 -1.2537e-010 2.90554 0.965183 0.102902 2.21134e-010 3.60123e-010 -1.25368e-010 10.2786 0.731801 0.0259123 2.21123e-010 3.60132e-010 -1.2536e-010 2.22167 -0.733487 -0.20892 -1.04565e-016 8.78228e-015 8.00042e-014 -166.3 77.9753 121.681 28.3064 -34.4649 -83.9237 0.00791868 -2.46066 0.346053 7.00511e-010 -2.62653e-009 -1.22339e-009 1.21427e-009 -4.54214e-009 -2.11654e-009 7.00509e-010 -2.62653e-009 -1.22339e-009 -7.73091 5.47488 -0.417314 7.00512e-010 -2.62653e-009 -1.22339e-009 -2.90554 0.965183 -0.102902 7.00505e-010 -2.62653e-009 -1.22339e-009 -10.2786 0.731801 -0.0259123 7.00514e-010 -2.62653e-009 -1.2234e-009 -2.22167 -0.733487 0.20892 -2.03217e-016 0 -3.88251e-019 -4.57178 -8.29001 9.1604 -0.084149 18.5472 0.38745 -5.25552 -12.0765 -16.7893 2.03217e-016 0 3.88251e-019 -2.86618 -1.11759 -4.44138 0.00310383 8.00869 -0.161715 4.48551 -11.3558 16.7283 
0.0264706 84.0954 4.15061 4.31474 4.37108 -4.16927 -2.70797 -0.707814 5.92874 -0.222129 -1.63989 1.63823 -5.64739 19.8033 -3.59605 4.52247 -26.572 -6.2638 -0 0 0 -0 0 0 -2.81401e-014 -2.49975e-014 -4.40432e-014 155.784 77.3921 -106.119 -28.2158 -31.1086 76.2098 -1.06381 -27.2243 -4.16521 1.3824e-010 -6.70912e-010 5.27552e-010 2.27862e-010 -1.15812e-009 9.14881e-010 1.38243e-010 -6.70924e-010 5.27545e-010 7.73091 5.47488 0.417314 1.38239e-010 -6.70913e-010 5.27549e-010 2.90554 0.965183 0.102902 1.3824e-010 -6.70923e-010 5.2755e-010 10.2786 0.731801 0.0259123 1.38228e-010 -6.7091e-010 5.27557e-010 2.22167 -0.733487 -0.20892 -2.82856e-014 -2.49981e-014 -4.42203e-014 -163.144 78.3864 118.908 28.2898 -34.793 -83.4225 0.00790481 -2.46658 0.346884 2.0051e-010 -4.83426e-010 -4.10079e-010 3.49352e-010 -8.38068e-010 -7.10338e-010 2.00508e-010 -4.83426e-010 -4.10079e-010 -7.73091 5.47488 -0.417314 2.00511e-010 -4.83426e-010 -4.10075e-010 -2.90554 0.965183 -0.102902 2.00505e-010 -4.83426e-010 -4.10079e-010 -10.2786 0.731801 -0.0259123 2.00513e-010 -4.83424e-010 -4.10085e-010 -2.22167 -0.733487 0.20892 -2.03217e-016 0 -3.88251e-019 -4.50584 -8.28043 9.09734 -0.0831004 18.4083 0.38338 -5.17944 -11.9701 -16.6331 2.03217e-016 0 3.88251e-019 -2.82071 -1.20862 -4.39427 0.000368332 8.0415 -0.162115 4.44414 -11.3199 16.5873 
0.0209052 84.0921 4.14655 4.11892 4.23196 -4.03128 -2.57723 -0.675328 5.70882 -0.214705 -1.59856 1.57768 -5.45639 19.0831 -3.46374 4.40324 -25.6124 -6.02067 -0 0 0 -0 0 0 -5.31157e-014 -5.73133e-014 -1.68736e-013 137.925 78.3121 -90.4305 -28.2428 -32.2964 73.6041 -0.946693 -26.2292 -3.97719 4.65581e-011 -1.68946e-009 1.16826e-009 5.71575e-011 -2.91102e-009 2.02005e-009 4.65614e-011 -1.68948e-009 1.16825e-009 7.73091 5.47488 0.417314 4.65565e-011 -1.68946e-009 1.16826e-009 2.90554 0.965183 0.102902 4.6559e-011 -1.68948e-009 1.16826e-009 10.2786 0.731801 0.0259123 4.65467e-011 -1.68946e-009 1.16826e-009 2.22167 -0.733487 -0.20892 -5.32679e-014 -5.73125e-014 -1.68946e-013 -144.573 79.9797 102.258 28.3047 -36.3394 -80.7479 0.00724247 -2.40204 0.33779 -3.21935e-010 1.71919e-009 4.33001e-010 -5.54507e-010 2.969e-009 7.47392e-010 -3.21937e-010 1.71919e-009 4.33003e-010 -7.73091 5.47488 -0.417314 -3.21933e-010 1.71919e-009 4.33007e-010 -2.90554 0.965183 -0.102902 -3.21938e-010 1.71919e-009 4.33002e-010 -10.2786 0.731801 -0.0259123 -3.21931e-010 1.71919e-009 4.32997e-010 -2.22167 -0.733487 0.20892 -2.03217e-016 0 -3.88251e-019 -4.31982 -8.12337 8.76461 -0.0754999 17.7259 0.365347 -4.84004 -11.4525 -15.9592 2.03217e-016 0 3.88251e-019 -2.713 -1.35596 -4.21557 -0.00271701 7.8371 -0.156091 4.16441 -10.8878 15.9301 
